. 
  
http://www.torrentday.com/        :     The Hottest Private Tracker On The Net!!! 
http://www.torrentday.com          :     Once you visit it, You can't stop yourself visiting Torrentday everyday ;)


               www . TorrentDay . Com 

(((((((((((((= Enjoy No RAR releases =))))))))))))))))))))


...................................NFO:....................................

.General

Complete name                    : 127 Hours 2010 DVDSCR (Upscaled 720p) XviD-HQ Jucified.avi
Format                           : AVI
Format/Info                      : Audio Video Interleave
Format profile                   : OpenDML
File size                        : 2.19 GiB
Duration                         : 1h 28mn
Overall bit rate                 : 3 542 Kbps

Video

Format                           : MPEG-4 Visual
Format profile                   : Streaming Video@L1
Format settings, BVOP            : Yes
Format settings, QPel            : No
Format settings, GMC             : No warppoints
Format settings, Matrix          : Default (H.263)
Codec ID                         : XVID
Codec ID/Hint                    : XviD
Duration                         : 1h 28mn
Bit rate                         : 3 281 Kbps
Width                            : 1 280 pixels
Height                           : 692 pixels
Display aspect ratio             : 1.850
Frame rate                       : 29.970 fps
Resolution                       : 24 bits
Colorimetry                      : 4:2:0
Scan type                        : Progressive
Bits/(Pixel*Frame)               : 0.124
Stream size                      : 2.03 GiB (93%)
Writing library                  : XviD 1.2.1

Audio

Format                           : MPEG Audio
Format version                   : Version 1
Format profile                   : Layer 3
Codec ID                         : 55
Codec ID/Hint                    : MP3
Duration                         : 1h 28mn
Bit rate mode                    : Constant
Bit rate                         : 256 Kbps
Channel(s)                       : 2 channels
Sampling rate                    : 44.1 KHz
Resolution                       : 16 bits
Stream size                      : 162 MiB (7%)